<?xml version="1.0" encoding="iso-8859-1"?>
<!-- Generator: Adobe Illustrator 16.0.0, SVG Export Plug-In . SVG Version: 6.00 Build 0)  -->
<!DOCTYPE svg PUBLIC "-//W3C//DTD SVG 1.1//EN" "http://www.w3.org/Graphics/SVG/1.1/DTD/svg11.dtd">
<svg version="1.1" id="Capa_1" xmlns="http://www.w3.org/2000/svg" xmlns:xlink="http://www.w3.org/1999/xlink" x="0px" y="0px"
	 width="165.235px" height="165.234px" viewBox="0 0 165.235 165.234" style="enable-background:new 0 0 165.235 165.234;"
	 xml:space="preserve">
<g>
	<path d="M165.235,64.31c0-1.522-0.742-2.953-1.984-3.818c-1.242-0.883-2.838-1.096-4.275-0.579l-35.305,12.69L86.198,28.03
		c-1.778-2.125-5.383-2.125-7.161,0L41.564,72.603L6.259,59.913c-1.434-0.518-3.023-0.305-4.277,0.579
		C0.737,61.368,0,62.787,0,64.31v56.032c0,0.354,0.125,0.658,0.192,0.98C0.076,121.736,0,122.175,0,122.625
		c0,15.723,74.175,16.173,82.629,16.173c8.452,0,82.605-0.45,82.605-16.173c0-0.45-0.073-0.889-0.194-1.303
		c0.073-0.322,0.194-0.64,0.194-0.98V64.31z M8.984,72.109c0.469-1.297,1.897-1.967,3.194-1.498l32.474,11.667l36.477-43.385
		c0.883-1.06,2.46-1.188,3.511-0.305c1.054,0.889,1.19,2.466,0.305,3.507L47.352,86.814c-0.487,0.579-1.188,0.896-1.909,0.896
		c-0.28,0-0.569-0.049-0.843-0.14L10.488,75.307C9.191,74.838,8.519,73.407,8.984,72.109z M82.629,132.581
		c-48.067,0-73.103-6.399-76.233-9.95c3.124-3.531,28.153-9.938,76.233-9.938c48.068,0,73.095,6.395,76.212,9.938
		C155.711,126.169,130.679,132.581,82.629,132.581z"/>
</g>
<g>
</g>
<g>
</g>
<g>
</g>
<g>
</g>
<g>
</g>
<g>
</g>
<g>
</g>
<g>
</g>
<g>
</g>
<g>
</g>
<g>
</g>
<g>
</g>
<g>
</g>
<g>
</g>
<g>
</g>
</svg>
